PathFileType	4	(X/Y/Z)	/Users/itak/Documents/Research/Walk-IL/dataset/trc/00484_00167.trc
DataRate	CameraRate	NumFrames	NumMarkers	Units	OrigDataRate	OrigDataStartFrame	OrigNumFrames
100.000000	100.000000	4	53	mm	100.000000	151	606
Frame#	Time	RPSI			LPSI			L3			STRN			T10			C7			CLAV			RBAK			LBAK			LSHO			LUPA			LAEL			LAOL			LWTS			LWPS			LFRA			LIFD			LHPS			LHTS			RSHO			RUPA			RAEL			RAOL			RWTS			RWPS			RFRA			RIFD			RHTS			RHPS			RBHD			LFHD			RFHD			LBHD			LHIP			RHIP			RASI			LASI			LKNE			LTHI			LANK			LTIP			LTOE			LMT1			LMT5			LHEE			RKNE			RTHI			RANK			RTIP			RTOE			RMT1			RMT5			RHEE			
		X1	Y1	Z1	X2	Y2	Z2	X3	Y3	Z3	X4	Y4	Z4	X5	Y5	Z5	X6	Y6	Z6	X7	Y7	Z7	X8	Y8	Z8	X9	Y9	Z9	X10	Y10	Z10	X11	Y11	Z11	X12	Y12	Z12	X13	Y13	Z13	X14	Y14	Z14	X15	Y15	Z15	X16	Y16	Z16	X17	Y17	Z17	X18	Y18	Z18	X19	Y19	Z19	X20	Y20	Z20	X21	Y21	Z21	X22	Y22	Z22	X23	Y23	Z23	X24	Y24	Z24	X25	Y25	Z25	X26	Y26	Z26	X27	Y27	Z27	X28	Y28	Z28	X29	Y29	Z29	X30	Y30	Z30	X31	Y31	Z31	X32	Y32	Z32	X33	Y33	Z33	X34	Y34	Z34	X35	Y35	Z35	X36	Y36	Z36	X37	Y37	Z37	X38	Y38	Z38	X39	Y39	Z39	X40	Y40	Z40	X41	Y41	Z41	X42	Y42	Z42	X43	Y43	Z43	X44	Y44	Z44	X45	Y45	Z45	X46	Y46	Z46	X47	Y47	Z47	X48	Y48	Z48	X49	Y49	Z49	X50	Y50	Z50	X51	Y51	Z51	X52	Y52	Z52	X53	Y53	Z53	

152	1.51	-1100.679077148438	938.0564575195312	-65.77135467529297	-1098.911010742188	945.9983520507812	-208.2982177734375	-1086.004150390625	1043.666748046875	-132.5751495361328	-802.44140625	1232.421752929688	-143.9225006103516	-1095.71484375	1166.984619140625	-141.9176940917969	-1018.1982421875	1433.04150390625	-134.0133209228516	-836.3872680664062	1346.561157226562	-147.2451019287109	-1083.81396484375	1314.92138671875	-40.55352020263672	-1051.7841796875	1386.456909179688	-232.9103088378906	-948.2202758789062	1405.489501953125	-313.1402282714844	-959.4779052734375	1287.428955078125	-411.3632202148438	-940.7540283203125	1068.02490234375	-438.6022338867188	-1023.992614746094	1060.105346679688	-377.4468994140625	-869.6790771484375	865.0383911132812	-389.3345642089844	-918.8388671875	848.5997314453125	-442.9619140625	-922.9273681640625	979.8667602539062	-445.0380249023438	-871.5621948242188	704.6593627929688	-394.6498718261719	-916.0844116210938	771.1709594726562	-440.3976440429688	-858.5629272460938	778.8689575195312	-396.9231262207031	-953.986083984375	1402.380493164062	25.34328651428223	-977.0930786132812	1346.43994140625	100.7532348632812	-992.7965698242188	1068.557983398438	179.5789337158203	-1042.887939453125	1052.642211914062	136.9622039794922	-907.322265625	851.6725463867188	160.3126831054688	-979.8008422851562	846.1573486328125	211.6138610839844	-994.7241821289062	1010.830810546875	193.8611297607422	-919.3803100585938	697.082763671875	177.1294555664062	-900.5586547851562	755.1510620117188	177.4459991455078	-970.399169921875	758.677978515625	214.3475036621094	-903.0728149414062	1629.293212890625	-45.23328399658203	-778.3160400390625	1624.798583984375	-210.0876159667969	-769.4273071289062	1625.019287109375	-80.03235626220703	-930.6279296875	1636.162719726562	-220.6350555419922	-970.4280395507812	844.3477172851562	-332.748779296875	-959.8919067382812	852.7101440429688	73.82117462158203	-876.9520874023438	900.4230346679688	-5.175772190093994	-868.8463745117188	878.81201171875	-258.7975769042969	-1027.925659179688	430.1328735351562	-271.0469970703125	-974.3672485351562	575.961181640625	-300.7682189941406	-1179.319580078125	39.65972900390625	-243.6117401123047	-1067.172485351562	282.6436767578125	-274.1415405273438	-952.9340209960938	52.24636077880859	-160.6917572021484	-1030.795166015625	53.03948593139648	-136.3356781005859	-1025.452758789062	49.05962371826172	-248.4003448486328	-1228.73193359375	47.28845977783203	-182.4618530273438	-753.6463623046875	518.5821533203125	68.22713470458984	-860.0225830078125	751.6777954101562	78.04071807861328	-861.0908203125	90.82741546630859	120.358642578125	-766.3670654296875	373.7312622070312	96.67459106445312	-654.274169921875	77.09653472900391	80.20796966552734	-711.3857421875	71.60315704345703	40.61620712280273	-734.489501953125	76.39307403564453	144.2101287841797	-924.0929565429688	93.17010498046875	73.78861999511719	
153	1.52	-1095.344848632812	937.32666015625	-66.10238647460938	-1093.66357421875	944.88525390625	-208.5896301269531	-1080.692138671875	1043.004516601562	-133.2032165527344	-796.8013916015625	1231.5576171875	-144.2229309082031	-1090.045288085938	1166.386108398438	-142.6001129150391	-1012.312805175781	1432.32763671875	-134.6173095703125	-830.6318969726562	1345.7578125	-147.5723114013672	-1078.1240234375	1314.32275390625	-41.30287933349609	-1045.846801757812	1385.792724609375	-233.5120086669922	-942.1725463867188	1404.860595703125	-313.5641784667969	-953.3911743164062	1286.968627929688	-411.9479064941406	-934.2598876953125	1067.541137695312	-439.27490234375	-1017.472412109375	1059.3671875	-378.1408996582031	-862.0792846679688	864.8673095703125	-389.5867919921875	-911.187744140625	848.1292724609375	-443.1300048828125	-915.9717407226562	979.4586791992188	-445.5592346191406	-863.904296875	704.3626098632812	-394.4371643066406	-908.4161376953125	770.7277221679688	-440.3347473144531	-850.8206176757812	778.5634155273438	-396.8525390625	-948.3521728515625	1401.7607421875	24.8066520690918	-971.769775390625	1346.046508789062	100.2045211791992	-988.9508056640625	1068.286254882812	179.1340179443359	-1039.126708984375	1052.75244140625	136.4531860351562	-905.2901000976562	850.5557861328125	159.8530731201172	-977.6838989257812	845.6981811523438	211.3591918945312	-991.347412109375	1010.629150390625	193.4737548828125	-919.08203125	696.0258178710938	176.1428375244141	-899.5755004882812	753.8887939453125	176.6250457763672	-969.28955078125	758.0824584960938	213.7435607910156	-897.0386962890625	1628.38818359375	-45.6613883972168	-772.4088745117188	1623.870361328125	-210.6150665283203	-763.4205932617188	1624.05908203125	-80.54805755615234	-924.7008666992188	1635.291259765625	-221.0541839599609	-965.3275146484375	843.0039672851562	-332.7679748535156	-954.2957153320312	852.4811401367188	73.58222961425781	-871.2052001953125	900.3946533203125	-5.279478073120117	-863.7105712890625	877.776123046875	-258.9927062988281	-1023.746826171875	429.0928344726562	-270.3417663574219	-969.6980590820312	574.8311767578125	-300.1572875976562	-1179.100219726562	39.89225006103516	-243.4188690185547	-1064.534545898438	281.7449645996094	-273.5325622558594	-952.7530517578125	51.28322982788086	-160.3555145263672	-1030.673706054688	52.54920196533203	-135.9745330810547	-1025.206787109375	48.92763900756836	-248.2281188964844	-1228.62158203125	47.55228424072266	-182.2239990234375	-748.780517578125	517.3035278320312	67.46234130859375	-854.4884643554688	751.236328125	77.41954803466797	-834.6320190429688	84.07185363769531	121.0285339355469	-754.8589477539062	372.0358581542969	96.35824584960938	-627.7134399414062	79.77106475830078	77.96327209472656	-685.3240356445312	72.76181030273438	38.92509460449219	-707.1900024414062	74.80629730224609	142.7763366699219	-898.4090576171875	84.17619323730469	75.43036651611328	
154	1.53	-1089.83251953125	936.4111938476562	-66.34938812255859	-1088.248413085938	943.6394653320312	-208.7820892333984	-1075.178955078125	1042.132202148438	-133.7095031738281	-790.9683227539062	1230.477661132812	-144.4125061035156	-1084.220336914062	1165.564453125	-143.1959381103516	-1006.241088867188	1431.40478515625	-135.1321563720703	-824.6707153320312	1344.734252929688	-147.7859191894531	-1072.283447265625	1313.49609375	-41.97160720825195	-1039.715454101562	1384.926879882812	-234.0355224609375	-935.9240112304688	1404.002075195312	-313.9071044921875	-947.138671875	1286.267822265625	-412.4395446777344	-927.642822265625	1066.831665039062	-439.9252319335938	-1010.83544921875	1058.385986328125	-378.8203125	-854.2047119140625	864.5938720703125	-389.741455078125	-903.2752685546875	847.4371337890625	-443.1783752441406	-908.8478393554688	978.8320922851562	-446.016845703125	-855.6981811523438	703.9827880859375	-393.9815063476562	-900.3604736328125	770.078125	-440.0872497558594	-842.6567993164062	778.21630859375	-396.6253356933594	-942.5612182617188	1400.892578125	24.36658668518066	-966.3092041015625	1345.38818359375	99.74208831787109	-984.9454956054688	1067.788696289062	178.8154144287109	-1035.182373046875	1052.630615234375	136.041748046875	-903.1495971679688	849.2135009765625	159.5506744384766	-975.4221801757812	845.050537109375	211.2976684570312	-987.8336791992188	1010.209777832031	193.2388153076172	-918.70458984375	694.7724609375	175.3219604492188	-898.500732421875	752.41650390625	175.9610748291016	-968.0613403320312	757.3070068359375	213.3406982421875	-890.85791015625	1627.297119140625	-45.99793243408203	-766.3694458007812	1622.797729492188	-211.05322265625	-757.2623901367188	1622.949951171875	-80.9742431640625	-918.6371459960938	1634.219482421875	-221.3625793457031	-960.0501708984375	841.6046752929688	-332.7392578125	-948.5909423828125	851.9424438476562	73.34941864013672	-865.2083129882812	900.0833740234375	-5.334511756896973	-858.4047241210938	876.6134643554688	-259.175048828125	-1019.500183105469	427.994873046875	-269.6721801757812	-964.92431640625	573.633056640625	-299.5637512207031	-1178.9140625	40.11897277832031	-243.2251434326172	-1061.856079101562	280.8150634765625	-272.9551696777344	-952.536376953125	50.29858016967773	-160.0203094482422	-1030.543334960938	52.08565521240234	-135.6144561767578	-1024.962646484375	48.79013442993164	-248.0711669921875	-1228.499633789062	47.84075546264648	-181.9960021972656	-744.044921875	515.5953369140625	66.88810729980469	-849.1005859375	750.3899536132812	76.85388946533203	-807.6512451171875	78.00314331054688	121.5785598754883	-743.276123046875	370.2651062011719	96.07129669189453	-601.159423828125	83.30453491210938	75.11273956298828	-659.3558349609375	74.70407104492188	36.85467529296875	-679.5977172851562	74.13858795166016	140.9361419677734	-872.2005004882812	75.74317169189453	77.11833953857422	
155	1.54	-1084.127075195312	935.3273315429688	-66.50157165527344	-1082.6630859375	942.2677612304688	-208.8635406494141	-1069.457885742188	1041.060302734375	-134.0739288330078	-784.9414672851562	1229.181640625	-144.4985198974609	-1078.260009765625	1164.528198242188	-143.6825256347656	-999.9854736328125	1430.268188476562	-135.5468444824219	-818.5039672851562	1343.488159179688	-147.8866424560547	-1066.291748046875	1312.446899414062	-42.54563903808594	-1033.391845703125	1383.856201171875	-234.4820861816406	-929.4749755859375	1402.906494140625	-314.164794921875	-940.6976928710938	1285.318725585938	-412.8351745605469	-920.8590087890625	1065.886108398438	-440.5431823730469	-1004.057922363281	1057.153564453125	-379.5010681152344	-846.0752563476562	864.1967163085938	-389.7843017578125	-895.0885620117188	846.513916015625	-443.1139831542969	-901.5217895507812	977.974609375	-446.4014892578125	-846.9589233398438	703.4940795898438	-393.2916259765625	-891.9083251953125	769.2125244140625	-439.6756286621094	-834.064697265625	777.818115234375	-396.2358093261719	-936.6127319335938	1399.773315429688	24.03115081787109	-960.7076416015625	1344.459350585938	99.36903381347656	-980.7916870117188	1067.060546875	178.6177062988281	-1031.058715820312	1052.26513671875	135.71630859375	-900.8798828125	847.6556396484375	159.4190673828125	-973.01025390625	844.2152709960938	211.4188079833984	-984.1907348632812	1009.563537597656	193.1493988037109	-918.2040405273438	693.3289794921875	174.7051239013672	-897.3053588867188	750.7457885742188	175.4903411865234	-966.6902465820312	756.353759765625	213.148193359375	-884.5231323242188	1626.0185546875	-46.24286270141602	-760.193115234375	1621.572021484375	-211.4006195068359	-750.9483642578125	1621.68701171875	-81.31364440917969	-912.4362182617188	1632.944946289062	-221.5604095458984	-954.6298217773438	840.1536254882812	-332.660400390625	-942.765869140625	851.1165771484375	73.12648773193359	-858.9873657226562	899.4846801757812	-5.372002601623535	-852.9322509765625	875.3201904296875	-259.3541259765625	-1015.209045410156	426.8471069335938	-269.0596008300781	-960.07275390625	572.3733520507812	-299.0088806152344	-1178.76806640625	40.33939361572266	-243.0308380126953	-1059.157958984375	279.863037109375	-272.4220886230469	-952.2872314453125	49.3234748840332	-159.6908874511719	-1030.401489257812	51.65998840332031	-135.2787322998047	-1024.721313476562	48.64861679077148	-247.9394683837891	-1228.360961914062	48.15147018432617	-181.7896423339844	-739.3662719726562	513.513671875	66.49994659423828	-843.83251953125	749.1718139648438	76.35132598876953	-780.357421875	72.77850341796875	121.9377899169922	-731.6257934570312	368.4955139160156	95.78691101074219	-574.842041015625	87.76012420654297	71.64777374267578	-633.693359375	77.46083068847656	34.38936233520508	-651.94677734375	74.51835632324219	138.6680450439453	-845.6460571289062	68.01889038085938	78.75826263427734	
